<svg width="17" height="17" viewBox="0 0 17 17" fill="none" xmlns="http://www.w3.org/2000/svg">
<path d="M1.49158 9.44493C1.55972 9.37665 1.64518 9.32821 1.73877 9.30481C1.83237 9.28141 1.93056 9.28394 2.02283 9.31212C3.03581 9.61836 4.11289 9.64404 5.13932 9.38642C6.16574 9.1288 7.10304 8.59753 7.85134 7.84923C8.59964 7.10093 9.13091 6.16363 9.38853 5.1372C9.64615 4.11078 9.62047 3.0337 9.31423 2.02072C9.28581 1.92841 9.28309 1.83011 9.30636 1.73637C9.32963 1.64264 9.37802 1.55702 9.44631 1.48873C9.5146 1.42044 9.60022 1.37205 9.69395 1.34878C9.78769 1.32551 9.88599 1.32823 9.9783 1.35665C11.3788 1.78567 12.6083 2.64546 13.4919 3.81369C14.2645 4.83957 14.7359 6.06059 14.8529 7.33957C14.9699 8.61856 14.7279 9.90483 14.1542 11.0539C13.5804 12.2029 12.6977 13.1692 11.605 13.8442C10.5124 14.5192 9.25317 14.8762 7.96884 14.875C6.47049 14.8796 5.012 14.3925 3.81712 13.4884C2.6489 12.6049 1.78911 11.3753 1.36009 9.97486C1.332 9.8829 1.32939 9.78504 1.35255 9.69171C1.37571 9.59839 1.42376 9.5131 1.49158 9.44493ZM4.45595 12.6397C5.58118 13.4873 6.97468 13.8998 8.37993 13.8014C9.78518 13.703 11.1076 13.1003 12.1037 12.1042C13.0999 11.1082 13.7027 9.78582 13.8012 8.38057C13.8997 6.97533 13.4873 5.58179 12.6399 4.4565C12.0878 3.7274 11.374 3.13637 10.5547 2.72994C10.6014 3.05747 10.6249 3.38788 10.6251 3.71872C10.6232 5.54978 9.89492 7.30529 8.60016 8.60004C7.30541 9.8948 5.5499 10.623 3.71884 10.625C3.38734 10.6249 3.05625 10.6013 2.72806 10.5546C3.13488 11.374 3.72637 12.0878 4.45595 12.6397Z" fill="#155DA4"/>
</svg>
